<svg width="51" height="50" viewBox="0 0 51 50" fill="none" xmlns="http://www.w3.org/2000/svg">
<path d="M20.528 2.8C21.0947 1.6 22.0113 0.783333 23.278 0.35H23.228C24.3613 -0.116667 25.5447 -0.116667 26.778 0.35C27.9447 0.783333 28.8447 1.58333 29.478 2.75L49.478 42.75V42.8C49.978 43.8333 50.128 44.9167 49.928 46.05L49.878 46.15C49.6113 47.2167 49.0613 48.1167 48.228 48.85L48.128 48.95C47.1947 49.65 46.1447 50 44.978 50H4.978C3.81133 50 2.778 49.6333 1.878 48.9C0.911333 48.1333 0.328 47.1833 0.128 46.05V46.15C-0.138667 44.95 0.0113339 43.8167 0.578001 42.75H0.527999L20.528 2.75V2.8Z" fill="white"/>
</svg>
